<svg width="26" height="28" viewBox="0 0 26 28" fill="none" xmlns="http://www.w3.org/2000/svg">
<path fill-rule="evenodd" clip-rule="evenodd" d="M20.3942 12.3904C20.709 12.5576 20.9518 12.8216 21.1227 13.0856C21.4554 13.6312 21.4284 14.3 21.1047 14.8896L20.4751 15.9456C20.1424 16.5088 19.5219 16.8608 18.8833 16.8608C18.5686 16.8608 18.2178 16.7728 17.9301 16.5968C17.6962 16.4472 17.4264 16.3944 17.1387 16.3944C16.2483 16.3944 15.5019 17.1248 15.4749 17.996C15.4749 19.008 14.6475 19.8 13.6133 19.8H12.3902C11.347 19.8 10.5196 19.008 10.5196 17.996C10.5017 17.1248 9.75522 16.3944 8.86489 16.3944C8.56811 16.3944 8.29831 16.4472 8.07348 16.5968C7.7857 16.7728 7.42597 16.8608 7.1202 16.8608C6.47269 16.8608 5.85216 16.5088 5.51941 15.9456L4.89887 14.8896C4.56612 14.3176 4.54814 13.6312 4.88089 13.0856C5.02478 12.8216 5.29458 12.5576 5.60035 12.3904C5.85216 12.2672 6.01403 12.0648 6.16692 11.8272C6.61658 11.0704 6.34678 10.076 5.58236 9.6272C4.69203 9.1256 4.40425 8.008 4.91686 7.1368L5.51941 6.0984C6.04101 5.2272 7.15617 4.9192 8.0555 5.4296C8.83791 5.852 9.85414 5.5704 10.3128 4.8224C10.4567 4.576 10.5376 4.312 10.5196 4.048C10.5017 3.7048 10.6006 3.3792 10.7715 3.1152C11.1042 2.5696 11.7067 2.2176 12.3633 2.2H13.6313C14.2968 2.2 14.8993 2.5696 15.2321 3.1152C15.394 3.3792 15.5019 3.7048 15.4749 4.048C15.4569 4.312 15.5379 4.576 15.6818 4.8224C16.1404 5.5704 17.1566 5.852 17.948 5.4296C18.8384 4.9192 19.9625 5.2272 20.4751 6.0984L21.0777 7.1368C21.5993 8.008 21.3115 9.1256 20.4122 9.6272C19.6478 10.076 19.378 11.0704 19.8366 11.8272C19.9805 12.0648 20.1424 12.2672 20.3942 12.3904Z" fill="white"/>
<path d="M13.0106 13.4904C11.5987 13.4904 10.4565 12.3904 10.4565 11.0088C10.4565 9.6272 11.5987 8.5184 13.0106 8.5184C14.4226 8.5184 15.5377 9.6272 15.5377 11.0088C15.5377 12.3904 14.4226 13.4904 13.0106 13.4904Z" fill="#1A1926"/>
<g opacity="0.25" filter="url(#filter0_d_7623_11910)">
<path d="M21.1224 13.0856C20.9515 12.8216 20.7087 12.5576 20.394 12.3904C20.1421 12.2672 19.9803 12.0648 19.8364 11.8272C19.3777 11.0704 19.6475 10.076 20.4119 9.6272C21.3113 9.1256 21.599 8.008 21.0774 7.1368L20.4749 6.0984C19.9623 5.2272 18.8381 4.9192 17.9478 5.4296C17.1564 5.852 16.1402 5.5704 15.6815 4.8224C15.5376 4.576 15.4567 4.312 15.4747 4.048C15.5016 3.7048 15.3937 3.3792 15.2318 3.1152C14.8991 2.5696 14.2966 2.2 13.6311 2.2H12.363C11.7065 2.2176 11.104 2.5696 10.7712 3.1152C10.6003 3.3792 10.5014 3.7048 10.5194 4.048C10.5374 4.312 10.4564 4.576 10.3126 4.8224C9.8539 5.5704 8.83766 5.852 8.05525 5.4296C7.15593 4.9192 6.04077 5.2272 5.51916 6.0984L4.91662 7.1368C4.404 8.008 4.69179 9.1256 5.58212 9.6272C6.34654 10.076 6.61634 11.0704 6.16667 11.8272C6.01379 12.0648 5.85191 12.2672 5.6001 12.3904C5.29433 12.5576 5.02454 12.8216 4.88064 13.0856C4.54789 13.6312 4.56588 14.3176 4.89863 14.8896L5.51916 15.9456C5.85191 16.5088 6.47244 16.8608 7.11996 16.8608C7.42573 16.8608 7.78546 16.7728 8.07324 16.5968C8.29807 16.4472 8.56787 16.3944 8.86464 16.3944C9.75497 16.3944 10.5014 17.1248 10.5194 17.996C10.5194 19.008 11.3468 19.8 12.39 19.8H13.6131C14.6473 19.8 15.4747 19.008 15.4747 17.996C15.5016 17.1248 16.2481 16.3944 17.1384 16.3944C17.4262 16.3944 17.696 16.4472 17.9298 16.5968C18.2176 16.7728 18.5683 16.8608 18.8831 16.8608C19.5216 16.8608 20.1421 16.5088 20.4749 15.9456L21.1044 14.8896C21.4282 14.3 21.4552 13.6312 21.1224 13.0856Z" fill="#1A1926"/>
</g>
<defs>
<filter id="filter0_d_7623_11910" x="0.639893" y="2.2" width="24.72" height="25.6" filterUnits="userSpaceOnUse" color-interpolation-filters="sRGB">
<feFlood flood-opacity="0" result="BackgroundImageFix"/>
<feColorMatrix in="SourceAlpha" type="matrix" values="0 0 0 0 0 0 0 0 0 0 0 0 0 0 0 0 0 0 127 0" result="hardAlpha"/>
<feOffset dy="4"/>
<feGaussianBlur stdDeviation="2"/>
<feComposite in2="hardAlpha" operator="out"/>
<feColorMatrix type="matrix" values="0 0 0 0 0 0 0 0 0 0 0 0 0 0 0 0 0 0 0.25 0"/>
<feBlend mode="normal" in2="BackgroundImageFix" result="effect1_dropShadow_7623_11910"/>
<feBlend mode="normal" in="SourceGraphic" in2="effect1_dropShadow_7623_11910" result="shape"/>
</filter>
</defs>
</svg>
